# xmcd
# Copyright (C) 1995-1998 Ti Kan
#
# Track frame offsets:
#       150
#       15115
#       29200
#       46257
#       63660
#       81220
#       95217
#       112480
#       128637
#       143702
#       163147
#       180132
#       199750
#       217480
#       232010
#       247395
#       261497
#       278227
#       296545
#       311280
#
# Disc length: 4334 seconds
#
# Revision: 0
# Processed by: cddbd v1.5.1PL0 Copyright (c) Steve Scherf et al.
# Submitted via: CD-Transfer v1.0
#
DISCID=3c10ec14
DTITLE=Various Artist - 
DYEAR=96
DGENRE=
TTITLE0=Hier kommt die Maus
TTITLE1=Mief!
TTITLE2=Herz an Herz
TTITLE3=Scharfes Ding
TTITLE4=Sie ist weg
TTITLE5=Ja klar
TTITLE6=Verdient
TTITLE7=Computerliebe
TTITLE8=Schwein sein
TTITLE9=Ein Bett im Kornfeld
TTITLE10=Eine Insel mit zwei Bergen
TTITLE11=Flieger, grüss mir die Sonne
TTITLE12=Nichts bleibt für die Ewigkeit
TTITLE13=Nie wieder Alkohol
TTITLE14=Eins, zwei, Polizei
TTITLE15=It's cool Man
TTITLE16=Ach Du meine Nase
TTITLE17=Lass uns schmutzig Liebe machen
TTITLE18=Mädchen
TTITLE19=Katzenklo
EXTD=
EXTT0=
EXTT1=
EXTT2=
EXTT3=
EXTT4=
EXTT5=
EXTT6=
EXTT7=
EXTT8=
EXTT9=
EXTT10=
EXTT11=
EXTT12=
EXTT13=
EXTT14=
EXTT15=
EXTT16=
EXTT17=
EXTT18=
EXTT19=
PLAYORDER=
